#!OML:ASF X:\für Bonn\!DataBase\2005_08_10_Bjorn_Final\c3d\bjorn.ASF
:FULLY-SPECIFIED
:DEGREES
247
root 23.3462 16.6863 -0.560952 26.2506 -62.6811 -340.205
lowerback 67.3243 -2.07349 8.93401
upperback 15.9686 1.18319 0.380443
thorax -2.92221 0.43725 -3.68472
lowerneck -5.95837 -3.07136 7.97969
upperneck -10.8408 -4.79015 -1.53599
head -2.71372 -2.80204 -1.83567
rclavicle -2.70347e-014 3.65764e-014
rhumerus 87.0894 11.4633 -51.5414
rradius 6.28222
rwrist 56.1033
rhand -32.8854 30.0099
rfingers 7.12502
rthumb -6.10353 0.117776
lclavicle -2.70347e-014 3.65764e-014
lhumerus 63.6046 -13.5076 99.1523
lradius 9.02823
lwrist -66.309
lhand -29.1766 0.843814
lfingers 7.12502
lthumb -2.52224 30.8086
rfemur -90.279 -20.3748 16.9524
rtibia 72.672
rfoot -21.3942 5.91617
rtoes -10.5435
lfemur -89.4073 3.37358 -33.1422
ltibia 68.58
lfoot -13.3375 -10.5123
ltoes -2.35363
248
root 23.3348 16.6956 -0.560813 26.1303 -62.7073 -340.065
lowerback 67.5096 -1.97559 8.8931
upperback 15.8952 1.28916 0.401219
thorax -2.99512 0.477266 -3.6827
lowerneck -5.93774 -3.16959 8.1677
upperneck -10.8583 -4.92333 -1.45722
head -2.73515 -2.87933 -1.84062
rclavicle 1.59028e-015 -1.59028e-014
rhumerus 87.4191 11.5753 -51.1274
rradius 5.63886
rwrist 56.6256
rhand -32.5986 29.5015
rfingers 7.12502
rthumb -5.82666 -0.398415
lclavicle 1.59028e-015 -1.59028e-014
lhumerus 63.6278 -13.8083 99.2178
lradius 8.88889
lwrist -66.8485
lhand -29.0237 0.445821
lfingers 7.12502
lthumb -2.37456 30.4124
rfemur -90.171 -20.3543 16.8453
rtibia 72.5823
rfoot -21.4105 5.89933
rtoes -10.5512
lfemur -89.303 3.38015 -33.2088
ltibia 68.4631
lfoot -13.3475 -10.4743
ltoes -2.53368
249
root 23.3241 16.7055 -0.561812 26.0133 -62.7 -339.907
lowerback 67.6471 -1.88974 8.86876
upperback 15.8508 1.38811 0.440239
thorax -3.03612 0.515095 -3.6652
lowerneck -5.99851 -3.26886 8.33106
upperneck -10.823 -5.06585 -1.38812
head -2.72421 -2.95919 -1.84595
rclavicle -9.06458e-014 -3.65764e-014
rhumerus 87.7644 11.6463 -50.6861
rradius 5.00983
rwrist 57.0789
rhand -32.3651 29.0351
rfingers 7.12502
rthumb -5.60127 -0.870822
lclavicle -9.06458e-014 -3.65764e-014
lhumerus 63.6659 -14.0982 99.2867
lradius 8.79034
lwrist -67.3519
lhand -28.8645 0.0682791
lfingers 7.12502
lthumb -2.22089 30.0365
rfemur -90.1011 -20.3581 16.7582
rtibia 72.4979
rfoot -21.3993 5.8584
rtoes -10.5598
lfemur -89.2156 3.37198 -33.2916
ltibia 68.3461
lfoot -13.3369 -10.463
ltoes -2.78728
250
root 23.3131 16.7163 -0.562271 25.8951 -62.7169 -339.757
lowerback 67.7506 -1.7841 8.83436
upperback 15.8379 1.49176 0.475995
thorax -3.04333 0.556562 -3.65013
lowerneck -6.00267 -3.36324 8.49687
upperneck -10.8593 -5.19523 -1.30251
head -2.74672 -3.03489 -1.84481
rclavicle -9.06458e-014 -1.27222e-014
rhumerus 88.0453 11.6673 -50.2437
rradius 4.48585
rwrist 57.4424
rhand -32.1231 28.6037
rfingers 7.12502
rthumb -5.36756 -1.30829
lclavicle -9.06458e-014 -1.27222e-014
lhumerus 63.7162 -14.3953 99.3466
lradius 8.70578
lwrist -67.8201
lhand -28.7093 -0.356859
lfingers 7.12502
lthumb -2.07099 29.6128
rfemur -90.003 -20.3395 16.6602
rtibia 72.4016
rfoot -21.4202 5.80477
rtoes -10.7849
lfemur -89.123 3.38091 -33.375
ltibia 68.2235
lfoot -13.2937 -10.4607
ltoes -2.86167
